<svg width="176" height="60" viewBox="0 0 176 60" fill="none" xmlns="http://www.w3.org/2000/svg">
<path d="M18.0138 45.2033H0.617938C0.617938 45.2033 4.28811 43.3377 4.28811 36.9014V11.5107C4.28811 6.1378 0 2.99428 0 2.99428L14.3343 0V18.031C16.5439 15.8296 20.5886 13.3297 24.6894 13.3297C29.2771 13.3297 33.4435 16.0814 33.4435 23.7024V36.8828C33.4435 43.4963 37.0669 45.1847 37.0669 45.1847H19.9706C19.9706 45.1847 23.594 44.1679 23.594 36.8828V23.4505C23.594 19.7286 21.3189 17.9563 18.5662 17.9563C17.2835 17.9563 15.3174 18.4507 14.3343 18.8705V36.8734C14.3343 43.8414 18.0138 45.2033 18.0138 45.2033Z" fill="white"/>
<path d="M51.7755 13.3389C59.378 13.3389 63.844 16.641 63.844 24.1407V36.7707C63.844 43.0018 68.4973 42.5074 68.4973 42.5074C68.4973 42.5074 63.6755 45.8655 59.5559 45.8655C56.616 45.8655 54.5281 44.401 54.0413 41.472C52.0283 43.5428 48.7701 45.9308 44.7909 45.9308C40.4466 45.9308 36.7671 43.1231 36.7671 38.599C36.7671 33.4127 41.5421 28.6461 53.9757 27.2469V23.4597C53.9757 18.5159 50.7924 15.6522 46.6822 15.6522C45.025 15.6522 43.555 16.1466 42.5158 16.6317C45.334 17.182 46.9256 19.0756 46.9256 21.2677C46.9256 23.7675 44.8471 25.7824 42.3379 25.7824C39.8849 25.7824 37.7408 23.9541 37.7408 21.2677C37.7502 16.6969 44.0606 13.3389 51.7755 13.3389ZM53.9851 29.2057C53.4889 29.0845 52.9458 28.9632 52.2717 28.9632C49.4535 28.9632 46.6354 31.0993 46.6354 35.4368C46.6354 39.5225 49.2008 41.3041 51.4759 41.3041C52.3279 41.3041 53.1331 41.0523 53.9851 40.6325V29.2057Z" fill="white"/>
<path d="M85.3132 45.2032H68.1607C68.1607 45.2032 71.8402 42.5821 71.8402 36.9013V24.635C71.8402 19.2621 67.5521 16.3332 67.5521 16.3332L81.5774 13.3389V18.1614C83.656 15.9694 87.9441 13.4042 92.0543 13.4042C96.7076 13.4042 100.93 15.9694 100.93 23.7209V36.9013C100.93 43.5148 104.61 45.2032 104.61 45.2032H87.4572C87.4572 45.2032 91.1368 43.3376 91.1368 36.9013V23.4691C91.1368 19.7472 88.6182 17.9749 85.8 17.9749C84.3956 17.9749 82.6822 18.404 81.6336 18.889V36.892C81.643 43.2537 85.3132 45.2032 85.3132 45.2032Z" fill="white"/>
<path d="M111.5 31.2859C111.444 32.0787 111.444 32.8157 111.444 33.5432C111.444 38.5523 114.206 41.7239 117.998 41.7239C121.369 41.7239 124.739 39.7743 127.492 36.8453L127.857 37.2744C126.022 40.39 120.938 45.9401 114.749 45.9401C108.495 45.9401 105.124 40.8657 105.124 34.3361C105.124 23.2918 115.667 13.3389 123.382 13.3389C127.482 13.3389 130.544 15.1672 130.544 19.0103C130.544 23.2265 127.492 27.7412 111.5 31.2859ZM111.566 30.5769C122.164 27.648 125.039 21.9486 125.039 18.404C125.039 15.9041 123.812 14.7474 122.033 14.7474C118.176 14.7474 112.727 22.2098 111.566 30.5769Z" fill="white"/>
<path d="M170.186 0.0279541C165.036 0.0279541 159.288 2.71441 156.713 12.5368L156.095 14.9154H150.955H150.88H143.961L146.039 7.59293H141.873C138.886 16.4079 132.379 17.9003 132.379 17.9003H137.342L132.333 36.8268C130.366 44.1492 131.658 45.9215 134.598 45.9215C137.669 45.9215 143.296 41.9571 145.319 39.6998V39.4479C138.943 42.3769 136.93 41.8266 138.268 36.8268L143.259 17.8164H155.337L147.528 47.6938C143.549 58.0292 140.235 59.7736 140.235 59.7736C144.579 58.1878 151.994 54.5219 154.447 45.3152L161.582 17.8164H166.937L169.184 14.9061H169.137H162.34L163.136 11.6786C165.102 3.61922 167.976 1.24059 170.794 1.18462C171.291 1.18462 171.899 1.24059 172.452 1.42715C170.495 2.09876 169.081 3.19946 169.081 5.5128C169.081 7.28511 170.738 8.38581 172.208 8.38581C174.352 8.38581 176 7.04258 176 4.54269C176.009 2.22935 173.687 0.0279541 170.186 0.0279541Z" fill="white"/>
<path d="M18.2642 5.80248C18.2642 4.81282 18.4756 4.02541 18.8986 3.44025C19.3253 2.85117 19.9031 2.55663 20.6319 2.55663C21.4589 2.55663 22.0896 2.89633 22.5238 3.57574V0H23.1979V9.04834H22.5635L22.5352 8.20006C22.1009 8.84412 21.4627 9.16616 20.6206 9.16616C19.9144 9.16616 19.3442 8.87162 18.9099 8.28253C18.4794 7.68952 18.2642 6.89033 18.2642 5.88496V5.80248ZM18.9496 5.92619C18.9496 6.73913 19.1063 7.38123 19.4197 7.8525C19.7331 8.31984 20.175 8.55351 20.7452 8.55351C21.5798 8.55351 22.1726 8.1706 22.5238 7.40479V4.41224C22.1726 3.5836 21.5835 3.16928 20.7565 3.16928C20.1863 3.16928 19.7426 3.40295 19.4254 3.87029C19.1082 4.3337 18.9496 5.019 18.9496 5.92619Z" fill="white"/>
<path d="M25.7412 9.04834H25.0615V2.67444H25.7412V9.04834ZM24.9426 0.830609C24.9426 0.697084 24.9841 0.585157 25.0672 0.494831C25.1503 0.400578 25.2635 0.353451 25.407 0.353451C25.5505 0.353451 25.6638 0.400578 25.7469 0.494831C25.8338 0.585157 25.8772 0.697084 25.8772 0.830609C25.8772 0.964135 25.8338 1.07606 25.7469 1.16639C25.6638 1.25671 25.5505 1.30188 25.407 1.30188C25.2635 1.30188 25.1503 1.25671 25.0672 1.16639C24.9841 1.07606 24.9426 0.964135 24.9426 0.830609Z" fill="white"/>
<path d="M31.2584 7.42836C31.2584 7.07883 31.1225 6.79804 30.8506 6.58597C30.5825 6.3739 30.1765 6.20895 29.6327 6.09114C29.0889 5.96939 28.666 5.83194 28.3639 5.67878C28.0656 5.52169 27.8428 5.33122 27.6955 5.10736C27.552 4.88351 27.4802 4.61253 27.4802 4.29443C27.4802 3.79174 27.6823 3.37742 28.0863 3.05146C28.4904 2.72157 29.0078 2.55663 29.6384 2.55663C30.3219 2.55663 30.8695 2.73335 31.2811 3.0868C31.6965 3.43633 31.9042 3.89385 31.9042 4.45937H31.2244C31.2244 4.08628 31.0734 3.77603 30.7713 3.52862C30.473 3.2812 30.0953 3.15749 29.6384 3.15749C29.1928 3.15749 28.834 3.26157 28.5621 3.46971C28.294 3.67392 28.16 3.94098 28.16 4.27086C28.16 4.58897 28.2714 4.83639 28.4942 5.01311C28.7208 5.18591 29.1305 5.34496 29.7234 5.49027C30.32 5.63558 30.7656 5.7907 31.0602 5.95565C31.3585 6.12059 31.5794 6.31892 31.7229 6.55062C31.8664 6.78233 31.9382 7.06313 31.9382 7.39301C31.9382 7.93104 31.7286 8.36108 31.3094 8.68311C30.894 9.00514 30.3502 9.16616 29.678 9.16616C28.9643 9.16616 28.3847 8.98747 27.9391 8.63009C27.4972 8.26879 27.2763 7.81323 27.2763 7.26341H27.956C27.9825 7.67577 28.1486 7.99781 28.4545 8.22951C28.7642 8.45729 29.172 8.57118 29.678 8.57118C30.1501 8.57118 30.5315 8.46318 30.8223 8.24719C31.113 8.03119 31.2584 7.75825 31.2584 7.42836Z" fill="white"/>
<path d="M34.5212 1.04268V2.67444H35.79V3.25175H34.5212V7.49905C34.5212 7.8525 34.5816 8.11562 34.7024 8.28842C34.827 8.46122 35.0328 8.54762 35.3198 8.54762C35.4331 8.54762 35.6163 8.52798 35.8693 8.48871L35.8976 9.06601C35.7201 9.13278 35.4785 9.16616 35.1726 9.16616C34.7081 9.16616 34.3701 9.02674 34.1586 8.74791C33.9472 8.46515 33.8414 8.05082 33.8414 7.50494V3.25175H32.7142V2.67444H33.8414V1.04268H34.5212Z" fill="white"/>
<path d="M40.027 3.27531C39.8835 3.24782 39.7306 3.23407 39.5682 3.23407C39.1452 3.23407 38.7865 3.35778 38.4919 3.6052C38.2012 3.84869 37.9935 4.2041 37.8689 4.67144V9.04834H37.1948V2.67444H37.8575L37.8689 3.68767C38.2276 2.93364 38.8035 2.55663 39.5965 2.55663C39.7853 2.55663 39.9345 2.58215 40.044 2.63321L40.027 3.27531Z" fill="white"/>
<path d="M41.8623 9.04834H41.1826V2.67444H41.8623V9.04834ZM41.0636 0.830609C41.0636 0.697084 41.1051 0.585157 41.1882 0.494831C41.2713 0.400578 41.3846 0.353451 41.5281 0.353451C41.6716 0.353451 41.7849 0.400578 41.868 0.494831C41.9548 0.585157 41.9982 0.697084 41.9982 0.830609C41.9982 0.964135 41.9548 1.07606 41.868 1.16639C41.7849 1.25671 41.6716 1.30188 41.5281 1.30188C41.3846 1.30188 41.2713 1.25671 41.1882 1.16639C41.1051 1.07606 41.0636 0.964135 41.0636 0.830609Z" fill="white"/>
<path d="M48.6427 5.92619C48.6427 6.91978 48.4312 7.70916 48.0082 8.29431C47.5853 8.87554 47.017 9.16616 46.3032 9.16616C45.4498 9.16616 44.804 8.83627 44.366 8.1765L44.3377 9.04834H43.7032V0H44.3773V3.59931C44.8078 2.90419 45.446 2.55663 46.2919 2.55663C47.017 2.55663 47.5891 2.84528 48.0082 3.42258C48.4312 3.99596 48.6427 4.79515 48.6427 5.82016V5.92619ZM47.9629 5.80248C47.9629 4.96206 47.8062 4.31406 47.4928 3.8585C47.1793 3.39902 46.7375 3.16928 46.1673 3.16928C45.733 3.16928 45.3648 3.2812 45.0627 3.50505C44.7606 3.72498 44.5321 4.04898 44.3773 4.47704V7.35178C44.7172 8.15293 45.3176 8.55351 46.1786 8.55351C46.7375 8.55351 47.1737 8.32377 47.4871 7.86428C47.8043 7.40479 47.9629 6.71753 47.9629 5.80248Z" fill="white"/>
<path d="M54.0862 8.24129C53.6784 8.85787 53.0269 9.16616 52.132 9.16616C51.4787 9.16616 50.9821 8.9698 50.6422 8.57707C50.3023 8.18042 50.1286 7.59527 50.1211 6.8216V2.67444H50.7951V6.73324C50.7951 7.94675 51.2672 8.55351 52.2113 8.55351C53.1931 8.55351 53.8143 8.13133 54.0749 7.28698V2.67444H54.7546V9.04834H54.0975L54.0862 8.24129Z" fill="white"/>
<path d="M57.5755 1.04268V2.67444H58.8443V3.25175H57.5755V7.49905C57.5755 7.8525 57.6359 8.11562 57.7568 8.28842C57.8814 8.46122 58.0872 8.54762 58.3742 8.54762C58.4875 8.54762 58.6706 8.52798 58.9236 8.48871L58.952 9.06601C58.7745 9.13278 58.5328 9.16616 58.2269 9.16616C57.7624 9.16616 57.4245 9.02674 57.213 8.74791C57.0015 8.46515 56.8958 8.05082 56.8958 7.50494V3.25175H55.7685V2.67444H56.8958V1.04268H57.5755Z" fill="white"/>
<path d="M62.6225 9.16616C62.1014 9.16616 61.6294 9.03263 61.2064 8.76558C60.7873 8.49853 60.4606 8.12741 60.2265 7.65221C59.9923 7.17309 59.8753 6.63702 59.8753 6.04401V5.7907C59.8753 5.17805 59.9886 4.62628 60.2151 4.13537C60.4455 3.64447 60.7646 3.2596 61.1724 2.98077C61.5803 2.69801 62.0221 2.55663 62.4979 2.55663C63.2419 2.55663 63.831 2.82172 64.2652 3.35189C64.7033 3.87814 64.9223 4.59879 64.9223 5.51383V5.90852H60.5493V6.04401C60.5493 6.76662 60.7476 7.36945 61.1441 7.8525C61.5444 8.33162 62.0467 8.57118 62.6509 8.57118C63.0134 8.57118 63.3325 8.50246 63.6082 8.365C63.8876 8.22755 64.1406 8.00762 64.3672 7.70523L64.792 8.04101C64.2936 8.79111 63.5704 9.16616 62.6225 9.16616ZM62.4979 3.15749C61.9881 3.15749 61.5576 3.35189 61.2064 3.74069C60.859 4.12948 60.6475 4.65181 60.572 5.30765H64.2482V5.23107C64.2294 4.61842 64.0613 4.11967 63.7441 3.7348C63.4269 3.34993 63.0115 3.15749 62.4979 3.15749Z" fill="white"/>
<path d="M65.9702 5.80248C65.9702 4.81282 66.1817 4.02541 66.6047 3.44025C67.0314 2.85117 67.6092 2.55663 68.338 2.55663C69.165 2.55663 69.7956 2.89633 70.2299 3.57574V0H70.904V9.04834H70.2696L70.2412 8.20006C69.807 8.84412 69.1688 9.16616 68.3266 9.16616C67.6205 9.16616 67.0503 8.87162 66.616 8.28253C66.1855 7.68952 65.9702 6.89033 65.9702 5.88496V5.80248ZM66.6556 5.92619C66.6556 6.73913 66.8124 7.38123 67.1258 7.8525C67.4392 8.31984 67.881 8.55351 68.4513 8.55351C69.2858 8.55351 69.8787 8.1706 70.2299 7.40479V4.41224C69.8787 3.5836 69.2896 3.16928 68.4626 3.16928C67.8924 3.16928 67.4487 3.40295 67.1314 3.87029C66.8142 4.3337 66.6556 5.019 66.6556 5.92619Z" fill="white"/>
<path d="M80.4429 5.92619C80.4429 6.91978 80.2315 7.70916 79.8085 8.29431C79.3856 8.87554 78.8172 9.16616 78.1035 9.16616C77.2501 9.16616 76.6043 8.83627 76.1663 8.1765L76.1379 9.04834H75.5035V0H76.1776V3.59931C76.6081 2.90419 77.2463 2.55663 78.0922 2.55663C78.8172 2.55663 79.3893 2.84528 79.8085 3.42258C80.2315 3.99596 80.4429 4.79515 80.4429 5.82016V5.92619ZM79.7632 5.80248C79.7632 4.96206 79.6065 4.31406 79.293 3.8585C78.9796 3.39902 78.5378 3.16928 77.9676 3.16928C77.5333 3.16928 77.1651 3.2812 76.863 3.50505C76.5609 3.72498 76.3324 4.04898 76.1776 4.47704V7.35178C76.5175 8.15293 77.1179 8.55351 77.9789 8.55351C78.5378 8.55351 78.9739 8.32377 79.2874 7.86428C79.6046 7.40479 79.7632 6.71753 79.7632 5.80248Z" fill="white"/>
<path d="M83.8189 8.03512L85.6089 2.67444H86.3396L83.7226 10.1323L83.5867 10.4621C83.2506 11.2358 82.7314 11.6226 82.029 11.6226C81.8666 11.6226 81.6929 11.5952 81.5078 11.5402L81.5022 10.957L81.8534 10.9923C82.1857 10.9923 82.4538 10.9059 82.6577 10.7331C82.8654 10.5643 83.041 10.2717 83.1845 9.85539L83.4847 8.99532L81.1736 2.67444H81.9157L83.8189 8.03512Z" fill="white"/>
</svg>
