<svg width="30" height="30" viewBox="0 0 30 30" fill="none" xmlns="http://www.w3.org/2000/svg">
<path fill-rule="evenodd" clip-rule="evenodd" d="M15 30C23.2843 30 30 23.2843 30 15C30 6.71573 23.2843 0 15 0C6.71573 0 0 6.71573 0 15C0 23.2843 6.71573 30 15 30ZM9.74324 21.25C13.053 21.25 15.7363 18.5917 15.7363 15.3126C15.7363 12.0335 13.0532 9.375 9.74324 9.375C6.43325 9.375 3.75 12.0341 3.75 15.3126C3.75 18.5911 6.43346 21.25 9.74324 21.25ZM19.3142 20.9024C20.9692 20.9024 22.3108 18.3992 22.3108 15.3126H22.3106C22.3106 12.2252 20.969 9.72281 19.314 9.72281C17.659 9.72281 16.3176 12.226 16.3176 15.3126C16.3176 18.3992 17.6592 20.9024 19.3142 20.9024ZM25 15.3126C25 18.0774 24.5282 20.3202 23.9461 20.3202C23.3639 20.3202 22.8924 18.078 22.8924 15.3126C22.8924 12.5472 23.3641 10.305 23.9461 10.305C24.528 10.305 25 12.547 25 15.3126Z" fill="black" fill-opacity="0.95"/>
</svg>
