<svg width="40" height="40" viewBox="0 0 40 40" fill="none" xmlns="http://www.w3.org/2000/svg">
<path fill-rule="evenodd" clip-rule="evenodd" d="M20 40C31.0457 40 40 31.0457 40 20C40 8.9543 31.0457 0 20 0C8.9543 0 0 8.9543 0 20C0 31.0457 8.9543 40 20 40ZM12.991 28.3333C17.404 28.3333 20.9817 24.789 20.9817 20.4168C20.9817 16.0446 17.4043 12.5 12.991 12.5C8.57767 12.5 5 16.0454 5 20.4168C5 24.7882 8.57794 28.3333 12.991 28.3333ZM25.7523 27.8699C27.959 27.8699 29.7478 24.5323 29.7478 20.4168H29.7475C29.7475 16.3003 27.9587 12.9637 25.752 12.9637C23.5454 12.9637 21.7568 16.3013 21.7568 20.4168C21.7568 24.5323 23.5456 27.8699 25.7523 27.8699ZM33.3333 20.4168C33.3333 24.1033 32.7043 27.0936 31.9281 27.0936C31.1519 27.0936 30.5232 24.1041 30.5232 20.4168C30.5232 16.7295 31.1522 13.74 31.9281 13.74C32.704 13.74 33.3333 16.7293 33.3333 20.4168Z" fill="black" fill-opacity="0.95"/>
</svg>
